<svg xmlns="http://www.w3.org/2000/svg" width="1050" height="680" viewBox="0 0 1050 680">
  <rect width="1050" height="680" fill="#1f7a3d"/>
  <g opacity="0.14" fill="#ffffff">
    <rect x="0" y="0" width="105" height="680"/><rect x="210" y="0" width="105" height="680"/>
    <rect x="420" y="0" width="105" height="680"/><rect x="630" y="0" width="105" height="680"/>
    <rect x="840" y="0" width="105" height="680"/>
  </g>
  <g fill="none" stroke="#ffffff" stroke-width="5">
    <rect x="24" y="24" width="1002" height="632"/>
    <line x1="525" y1="24" x2="525" y2="656"/>
    <circle cx="525" cy="340" r="92"/>
    <circle cx="525" cy="340" r="5" fill="#ffffff"/>
    <rect x="24" y="170" width="165" height="340"/>
    <rect x="861" y="170" width="165" height="340"/>
    <rect x="24" y="255" width="58" height="170"/>
    <rect x="968" y="255" width="58" height="170"/>
    <circle cx="129" cy="340" r="5" fill="#ffffff"/>
    <circle cx="921" cy="340" r="5" fill="#ffffff"/>
    <path d="M189 255 A92 92 0 0 1 189 425"/>
    <path d="M861 255 A92 92 0 0 0 861 425"/>
    <path d="M24 58 A34 34 0 0 0 58 24"/>
    <path d="M992 24 A34 34 0 0 0 1026 58"/>
    <path d="M24 622 A34 34 0 0 1 58 656"/>
    <path d="M992 656 A34 34 0 0 1 1026 622"/>
  </g>
  <g fill="none" stroke="#dbeafe" stroke-width="4">
    <rect x="0" y="285" width="24" height="110"/>
    <rect x="1026" y="285" width="24" height="110"/>
  </g>
</svg>